<?xml version="1.0" encoding="UTF-8"?>
<!DOCTYPE svg PUBLIC "-//W3C//DTD SVG 1.1//EN" "http://www.w3.org/Graphics/SVG/1.1/DTD/svg11.dtd">
<!-- Creator: CorelDRAW X6 -->
<svg xmlns="http://www.w3.org/2000/svg" xml:space="preserve" width="183.492mm" height="77.5314mm" version="1.1" style="shape-rendering:geometricPrecision; text-rendering:geometricPrecision; image-rendering:optimizeQuality; fill-rule:evenodd; clip-rule:evenodd"
viewBox="0 0 16289 6883"
 xmlns:xlink="http://www.w3.org/1999/xlink">
 <defs>
  <style type="text/css">
   <![CDATA[
    .fil0 {fill:#373435}
   ]]>
  </style>
 </defs>
 <g id="Capa_x0020_1">
  <metadata id="CorelCorpID_0Corel-Layer"/>
  <g id="_255224552">
   <path class="fil0" d="M3042 5206c0,284 19,500 169,748 49,80 90,152 151,220l91 94c96,91 202,171 324,232 303,152 720,198 1060,198 176,0 357,-35 500,-66 304,-65 722,-253 980,-444 59,-44 95,-103 188,-105 25,295 -48,673 273,673 133,0 243,-43 343,-105 89,-56 205,-170 277,-250 17,-18 19,-24 36,-42 121,-130 158,-23 204,104 25,69 52,122 89,184 135,223 494,330 494,52 0,-58 -106,-246 -149,-368 -45,-127 -79,-273 -103,-413 -27,-150 -40,-299 -63,-454 -11,-74 -15,-153 -58,-205 -86,-106 -287,-105 -360,-24 -75,84 -294,799 -486,850 1,-48 20,-123 28,-166 37,-185 57,-308 127,-487 70,-179 393,-643 156,-643 -91,0 -272,92 -337,131 -115,69 -127,97 -198,153l-568 514c-25,20 -34,32 -63,54 -234,183 -302,247 -586,369 -441,189 -882,171 -1336,44 -674,-188 -813,-761 -388,-1349 28,-39 50,-67 79,-106 128,-171 309,-326 481,-446 390,-273 773,-294 1031,-451 282,-171 180,-483 -249,-483 -144,0 -447,116 -582,179 -242,113 -523,269 -717,443 -346,309 -836,858 -836,1367z"/>
   <path class="fil0" d="M2515 244c0,208 45,222 29,360 -52,440 -68,665 -68,1103 0,260 8,420 30,682 18,214 65,282 -102,328 -69,19 -123,31 -183,51 -183,61 -323,130 -492,200 -162,67 -387,191 -560,191 -117,0 -188,-295 -225,-408 -24,-73 -54,-164 -75,-237 -120,-430 -103,-398 445,-468 65,-8 140,-12 212,-22 143,-20 257,-41 373,-85 121,-46 255,-98 255,-223 0,-67 -43,-136 -107,-136 -540,0 -517,-9 -1010,101 -97,22 -236,86 -277,6 -41,-80 -26,-393 129,-467 72,-34 132,-27 233,-30 101,-3 439,-63 554,-99 137,-42 372,-162 372,-301 0,-189 -56,-175 -263,-175 -120,0 -558,175 -702,175 -197,0 -244,-146 -361,-146 -60,0 -71,55 -173,119 -58,36 -134,67 -197,95 -70,31 -351,157 -351,244l0 136c0,54 10,58 10,107 316,0 300,189 259,405 -22,115 -24,188 -105,285 -46,55 -103,157 -38,218 64,60 184,17 260,286 24,86 50,159 72,240 10,38 22,80 36,120 14,40 23,78 39,117 30,76 55,154 82,230 30,82 54,142 93,219 60,118 186,279 354,279 205,0 330,-81 482,-191 28,-20 49,-32 75,-51 52,-38 99,-64 152,-102 160,-114 546,-319 724,-319 71,0 115,218 127,292 21,125 70,214 215,214 291,0 199,-259 175,-536 -5,-60 -13,-124 -20,-185 -3,-30 -7,-50 -12,-86 -28,-189 -75,-685 -75,-851 0,-247 -1,-310 19,-556 17,-204 10,-550 10,-770l-19 -488c-31,-122 -95,-116 -205,-116 -124,0 -195,121 -195,244z"/>
   <path class="fil0" d="M9009 6278c-217,0 -56,-318 -37,-388 70,-254 252,-519 563,-519 257,0 298,39 269,240 -22,152 -93,290 -182,364 -91,76 -135,115 -260,169 -46,20 -324,134 -354,134zm-751 -1618l28 1500c-92,820 749,758 1282,463 81,-45 245,-173 316,-239 81,-75 189,-203 253,-293 15,-21 20,-32 35,-53 98,-139 212,-419 212,-627 0,-238 27,-477 -202,-559 -59,-21 -482,-60 -539,-55 -88,8 -182,13 -263,30 -81,16 -153,36 -222,71 -278,140 -256,191 -344,250 -11,-49 -32,-77 -43,-142 -35,-204 -12,-711 5,-930 21,-272 78,-512 133,-773 33,-156 112,-378 -202,-378 -160,0 -244,136 -287,259 -22,62 -62,384 -74,471 -43,313 -87,651 -87,1005z"/>
   <path class="fil0" d="M11007 6171c-23,0 -29,-16 -49,-29 0,-88 51,-244 81,-309 20,-42 48,-85 73,-122 13,-20 25,-40 39,-58l74 -82c117,-117 271,-226 406,-316 -2,71 -68,224 -95,286 -63,147 -406,631 -529,631zm-595 88c0,146 16,246 114,344 184,184 472,110 669,10 154,-78 259,-236 363,-368 38,-48 67,-93 103,-141 18,-24 31,-42 50,-67l163 -207c106,201 260,632 386,813 20,29 33,38 53,64 36,47 189,175 263,175 80,0 117,-4 203,-60 182,-119 50,-294 -44,-420 -304,-406 -396,-981 -473,-1457 -18,-112 -41,-240 -126,-303 -27,-20 -75,-38 -106,-39 -46,-1 -113,25 -151,42 -89,37 -175,86 -259,121l-259 131c-157,84 -224,150 -344,250l-103 101c-1,1 -4,3 -5,5l-160 181c-184,233 -336,492 -336,825z"/>
   <path class="fil0" d="M13484 5050c-132,0 -74,-58 -273,-58 -119,0 -202,130 -222,227 -13,61 -14,143 -20,204 -4,35 -1,71 -1,106 -1,53 -9,57 -10,107 -5,162 -4,279 -21,428l-57 392c0,210 319,462 478,58 16,-39 33,-73 47,-109l274 -622c82,-166 141,-341 262,-489l57 -60c15,-14 1,-8 23,-16l40 213c67,337 139,1023 293,1286 59,100 129,109 213,109 100,0 260,-26 241,-162l-77 -334c-27,-105 -51,-219 -72,-338 -56,-310 -132,-1293 -380,-1463 -211,-144 -402,24 -524,187 -85,114 -183,334 -270,334z"/>
   <path class="fil0" d="M15326 5888c0,-108 20,-211 72,-279 275,-359 376,91 376,162 0,168 -1,267 -98,419 -35,55 -142,176 -224,176 -141,0 -123,-315 -121,-420 1,-26 -6,-20 -6,-57zm-497 -107c0,359 -38,596 173,880 193,260 531,271 808,120 46,-25 99,-64 138,-96 339,-286 469,-1001 188,-1401 -265,-376 -724,-289 -1045,-31 -127,102 -262,301 -262,528z"/>
   <path class="fil0" d="M8853 1823c229,-53 258,-53 487,0l0 20c-82,7 -149,65 -376,25 -45,-8 -90,-16 -111,-45zm-146 58c0,248 60,283 390,283 104,0 271,-1 343,-66 29,-27 30,-55 47,-90 -36,-3 -28,-10 -78,-10 -55,0 -107,88 -295,61 -150,-21 -270,41 -270,-90l458 0c220,0 302,-283 -78,-283 -114,0 -341,-11 -434,34 -58,27 -82,82 -82,161z"/>
   <path class="fil0" d="M6211 1882c-140,0 -187,-34 -244,-39l0 -20c157,-37 197,-52 369,-28 46,6 78,18 119,28 -34,47 -161,58 -244,58zm-390 20c0,114 -8,197 123,238 64,20 642,97 647,-131 -175,-15 -42,-16 -163,32 -109,43 -186,17 -247,16 -26,0 -40,0 -66,-3 -34,-4 -87,12 -132,-13 -29,-16 -26,-32 -26,-72l458 0c216,0 300,-283 -78,-283 -120,0 -328,-7 -428,30 -70,26 -89,88 -89,184z"/>
   <path class="fil0" d="M9672 1833c0,56 50,93 93,112 64,27 95,25 180,25 103,0 190,-9 290,12 36,8 40,17 90,17 -10,43 2,37 -103,53 -325,49 -449,-61 -550,-63 40,171 129,175 370,175 67,0 199,-3 258,-15 163,-34 213,-168 61,-245 -42,-21 -126,-29 -182,-32 -141,-8 -174,15 -309,-13 -52,-11 -58,6 -62,-45 168,-39 284,-37 454,-6l189 54c-5,-211 -340,-175 -507,-175 -119,0 -273,31 -273,146z"/>
   <path class="fil0" d="M4553 1852c0,240 -23,312 390,312 136,0 353,4 390,-156 -90,-13 -82,-22 -142,14 -29,17 -33,19 -70,28 -75,17 -268,10 -339,2 -121,-15 -102,-111 -102,-170 0,-113 133,-84 205,-88 43,-2 47,-9 97,-10 181,-3 199,50 245,58 23,4 80,1 106,1 -28,-52 -36,-85 -88,-117 -98,-61 -590,-63 -662,30 -16,20 -30,61 -30,97z"/>
   <path class="fil0" d="M7751 1716l0 439c155,0 129,39 126,-244 -1,-135 28,-117 156,-117 121,1 225,-39 356,34 46,26 43,15 131,15 -27,-117 -120,-156 -263,-156l-478 0c-22,0 -29,7 -29,29z"/>
   <path class="fil0" d="M6786 1696l0 458 127 0c0,-125 -21,-276 36,-335 33,-34 33,-14 86,-20 415,-46 363,43 424,43l97 0c-2,-89 -72,-133 -148,-144l-339 -12c-107,0 -177,10 -283,10z"/>
   <path class="fil0" d="M5518 1618c0,70 -10,34 39,68l-39 11 0 438c69,46 127,24 127,-10l0 -351c0,-52 -29,-55 -78,-97 127,0 89,-97 10,-97 -30,0 -59,9 -59,39z"/>
  </g>
 </g>
</svg>
