<?xml version="1.0" encoding="UTF-8"?>
<!DOCTYPE svg PUBLIC "-//W3C//DTD SVG 1.1//EN" "http://www.w3.org/Graphics/SVG/1.1/DTD/svg11.dtd">
<!-- Creator: CorelDRAW X6 -->
<svg xmlns="http://www.w3.org/2000/svg" xml:space="preserve" width="375.366mm" height="69.5078mm" version="1.1" style="shape-rendering:geometricPrecision; text-rendering:geometricPrecision; image-rendering:optimizeQuality; fill-rule:evenodd; clip-rule:evenodd"
viewBox="0 0 24153 4472"
 xmlns:xlink="http://www.w3.org/1999/xlink">
 <defs>
  <style type="text/css">
   <![CDATA[
    .fil2 {fill:#373435}
    .fil0 {fill:#364147}
    .fil1 {fill:#F0F0F0}
   ]]>
  </style>
 </defs>
 <g id="Capa_x0020_1">
  <metadata id="CorelCorpID_0Corel-Layer"/>
  <g id="_306127864">
   <path class="fil0" d="M3717 2626l130 1 2 -184 42 2 0 182 133 0 1 -183 43 1 0 182 132 1 2 -184 42 1 0 182 133 0 2 -183 43 1 0 181 132 2 3 -183 43 0 0 183 133 0 2 -184 42 2 0 182 136 0 0 -182 42 -1 0 183 132 0 2 -184 43 2 0 182 133 0 1 -183 43 1 0 182 132 1c8,-33 4,-142 3,-182 19,2 40,3 50,1 21,-4 22,-7 48,-3l0 25 -41 3c-2,42 1,33 -7,42l-9 115 134 0 3 -182 41 -1 0 182 132 1 3 -184c113,11 56,-58 57,-92 13,-21 17,-17 31,-33l0 -177 -135 -3 -1 183 -42 0 0 -182 -134 0 -1 184 -42 -2 0 -182 -135 0 -1 183 -42 0 0 -182 -135 -1 -1 184 -42 -1 0 -183 -134 0 0 183 -42 -1 -1 -181 -134 -2 -1 184 -42 -1 0 -182 -134 0 -1 184c-57,-7 -43,31 -43,-181l-134 -3 -1 183 -43 0 0 -183 -134 0 0 184 -43 -2 0 -183 -134 1 0 173c-4,12 -13,6 -42,11l0 -138 1 -43 -7 0 -128 -3 -1 184 -43 -1 0 -183 -134 1 -1 183 -42 -1c-1,-31 0,-64 0,-96 0,-42 8,-78 -9,-86 -9,12 -5,92 -7,125 -3,46 -9,72 -14,109 -7,51 -17,59 -16,120 1,38 -4,98 2,133z"/>
   <path class="fil0" d="M3413 2279l0 154 51 0 23 388 -347 0 23 -387 51 0 0 -154c-122,2 -111,25 -119,147l-75 1249c-3,42 -9,76 8,114 42,93 193,118 282,119 80,1 149,-18 213,-47 88,-39 88,-108 84,-177l-61 -1003c-3,-50 -12,-332 -31,-366 -21,-39 -49,-35 -104,-36z"/>
   <path class="fil0" d="M3053 2796c3,-59 19,-447 37,-487 22,-49 59,-52 125,-52l0 -75 -95 0c0,-66 -15,-163 24,-206 36,-39 95,-62 167,-63 69,-1 137,23 171,59 22,24 27,46 27,89 0,40 0,81 0,121l-94 0 -1 75c149,-4 134,61 142,207 6,110 13,220 20,330 83,-13 59,-198 72,-289 19,-131 49,-135 46,-320 -3,-202 -171,-353 -376,-354 -205,-1 -377,150 -381,348 -4,182 54,250 56,496 1,57 16,107 62,119z"/>
   <path class="fil1" d="M3280 3412c-253,45 -176,424 71,374 244,-49 178,-419 -71,-374z"/>
   <path class="fil0" d="M3229 2247c0,97 -3,305 2,379 26,8 139,7 166,1 9,-36 3,-542 3,-597l-143 -4c-20,1 -24,0 -27,19 -6,37 0,157 0,202z"/>
   <path class="fil0" d="M3140 2163l75 0c-1,-46 -7,-109 7,-145 33,-8 151,-8 184,0 14,36 8,100 7,146l75 0c-1,-77 12,-143 -24,-177 -33,-32 -88,-50 -148,-51 -59,-1 -117,17 -150,49 -40,39 -26,91 -27,179z"/>
   <path class="fil0" d="M361 108c-6,-13 -59,-100 -68,-108 -15,7 -138,77 -147,85 -29,28 12,49 -55,58 -86,11 5,151 49,78 33,-55 44,-8 77,-20 7,-3 136,-86 143,-92z"/>
   <path class="fil0" d="M328 4335c24,-41 63,-75 76,-107 -23,-11 -67,-48 -87,-66 -14,-11 -28,-25 -42,-35 -24,-17 -20,5 -56,-3 -32,-20 -11,-36 -35,-48 -40,-21 -89,31 -73,73 12,31 30,10 55,27 25,17 5,36 17,53 3,4 38,30 46,36l81 61c16,10 -2,1 17,9z"/>
   <path class="fil0" d="M290 4091c31,14 119,99 141,110l42 -47c14,-17 30,-34 42,-50 -20,-18 -123,-116 -136,-119 -18,-4 -43,19 -59,-15 -10,-21 -5,-45 -46,-37 -21,4 -41,24 -46,43 -25,93 76,2 63,115z"/>
   <path class="fil0" d="M846 1046c42,-12 30,13 53,-12 37,-38 73,-62 115,-119 -20,-12 -50,-64 -95,-90 -22,30 -55,49 -80,78 -7,8 -9,13 -17,21 -5,6 -20,17 -22,21 -12,20 10,37 -14,57 0,0 -97,26 -32,85 62,56 70,-21 91,-42z"/>
   <path class="fil0" d="M224 288c-6,2 -109,6 -59,82 8,13 30,30 54,22 19,-6 22,-31 41,-46 39,-6 34,14 56,1l139 -95c-15,-33 -50,-72 -69,-109l-146 90c-16,12 -9,28 -17,54z"/>
   <path class="fil0" d="M2575 2792c29,-5 100,-24 123,-35 -6,-21 -38,-161 -44,-169 -21,-28 -48,9 -37,-66 12,-81 -146,-36 -92,26 9,10 23,10 20,35 -2,24 -18,22 -19,38 -1,14 44,158 51,169z"/>
   <path class="fil0" d="M549 4066c25,-35 59,-62 85,-96 -44,-33 -78,-83 -123,-117 -29,-22 -45,31 -71,-37 -13,-36 -50,-29 -73,-7 -18,18 -33,61 5,74 15,5 32,2 39,21 12,33 -12,27 8,51l64 56c15,11 19,14 32,28 13,14 17,18 33,26z"/>
   <path class="fil0" d="M643 783c29,-38 112,-95 130,-121 -5,-9 -74,-90 -82,-96 -15,9 -134,101 -138,118 -7,32 6,43 -32,53 -25,7 -43,11 -35,48 6,29 61,87 92,15 14,-33 29,-24 65,-17z"/>
   <path class="fil0" d="M413 505l145 -107c-9,-22 -58,-83 -73,-106 -8,3 -145,93 -149,108 -8,30 6,41 -32,49 -83,18 -28,85 -7,94 73,32 25,-73 116,-39z"/>
   <path class="fil0" d="M1043 3590c20,-8 85,-60 104,-78 -11,-25 -35,-52 -51,-73 -20,-25 -36,-49 -54,-71 -62,-5 -51,-7 -65,-65 -39,-12 -76,-2 -87,33 -21,66 50,33 51,84 1,47 -24,13 41,90 17,20 51,58 61,81z"/>
   <path class="fil0" d="M784 3820c35,-25 62,-59 96,-86 -9,-15 -13,-20 -27,-32 -15,-14 -18,-19 -30,-35 -19,-23 -35,-29 -60,-71 -67,13 -56,-8 -70,-55 -38,-9 -75,-1 -86,39 -18,68 58,25 57,83 0,34 -21,11 47,83 13,14 24,20 37,34 13,14 24,26 36,40z"/>
   <path class="fil0" d="M1644 1683c-16,10 -28,17 -44,28 -3,29 4,46 20,58 15,11 38,18 56,10 49,-20 -17,-73 74,-78 21,-44 76,-122 90,-159 -36,-12 -77,-52 -110,-62 -21,23 -42,65 -60,91 -62,95 -20,42 -28,111z"/>
   <path class="fil0" d="M74 4373c18,7 55,35 73,48 26,18 47,35 75,52l6 -6c22,-26 53,-79 71,-91 -11,-21 -12,-16 -41,-38 -167,-124 -68,-51 -158,-72 -13,-25 -8,-47 -41,-48 -27,-1 -47,22 -54,42 -12,33 1,51 32,56 39,7 41,15 37,58z"/>
   <path class="fil0" d="M2792 1964c-15,-13 -97,-34 -119,-41 -8,9 -57,145 -58,163 -1,21 8,12 15,36 13,43 -40,29 -29,76 10,44 93,54 101,10 4,-21 -9,-21 -3,-46 9,-33 33,-4 47,-41 2,-4 4,-16 6,-22 4,-16 9,-31 14,-46 9,-28 19,-59 26,-88z"/>
   <path class="fil0" d="M1193 1315c27,78 -29,45 -43,85 -18,49 47,82 75,67 28,-27 13,-25 25,-60 68,-28 19,33 89,-58 19,-24 60,-72 69,-93 -12,-15 -33,-27 -47,-38l-51 -42 -117 139z"/>
   <path class="fil0" d="M1618 3198l111 -62c-4,-12 -76,-149 -81,-154 -17,-15 -21,-2 -40,-14 -20,-12 -12,-27 -14,-46 -10,-82 -155,13 -79,52 17,9 26,9 25,34 -2,26 -15,19 -9,38 4,14 76,134 88,151z"/>
   <path class="fil0" d="M1056 1199c20,73 -15,46 -47,82 -13,46 30,85 76,70 27,-25 8,-33 33,-60 31,-19 20,26 71,-38 26,-32 68,-76 86,-109 -33,-18 -74,-65 -101,-78l-56 67c-11,15 -20,20 -31,34 -13,15 -11,20 -30,33z"/>
   <path class="fil0" d="M1470 3287c19,-9 35,-21 54,-32 18,-10 40,-22 57,-35l-81 -142c-19,-29 3,-3 -55,-22 -5,-14 -1,-109 -74,-62 -79,50 6,81 10,89 17,25 -9,38 -4,55l93 149z"/>
   <path class="fil0" d="M1079 3285c17,76 -31,21 32,105 17,23 58,73 68,94l97 -68c10,-9 3,-2 9,-9l-100 -148c-102,7 -24,-98 -113,-70 -19,6 -41,26 -42,50 -2,34 27,34 48,45z"/>
   <path class="fil0" d="M2703 2574l42 173 126 -28 -36 -177c-52,-24 -39,-17 -34,-67 7,-77 -145,-35 -93,27 34,40 20,35 -4,72z"/>
   <path class="fil0" d="M1231 3186c14,28 -10,31 -1,54l98 139c14,-6 96,-61 106,-70l-87 -139c-23,-30 -38,0 -57,-25 -15,-20 1,-42 -19,-57 -28,-22 -97,8 -85,57 8,33 28,6 44,41z"/>
   <path class="fil0" d="M2109 1893c44,77 -25,47 -23,98 2,46 56,53 94,41 17,-51 -18,-62 38,-81l17 -6 71 -164 -117 -50 -80 163z"/>
   <path class="fil0" d="M1548 1624c20,-20 22,-15 50,-15 16,-27 30,-47 47,-73 16,-24 37,-54 49,-78l-104 -72c-4,4 -3,2 -8,9l-87 126c-18,30 12,27 -1,58 -5,13 -88,48 -25,94 13,10 37,19 58,10 27,-11 14,-33 23,-58z"/>
   <path class="fil0" d="M2342 2593c16,12 36,24 30,50 -9,39 -28,6 -9,62 15,41 26,103 49,138l119 -37 -42 -151c-13,-42 -8,-15 -36,-34 -32,-22 10,-75 -38,-88 -45,-12 -77,17 -74,61z"/>
   <path class="fil0" d="M797 3509c10,32 -1,47 3,58l118 133 96 -83 -55 -69c-16,-20 -46,-52 -55,-71l-52 0c-10,-19 -10,-49 -20,-58 -30,-26 -95,12 -85,58 5,27 24,23 50,32z"/>
   <path class="fil0" d="M534 3765c3,15 3,17 3,34 -1,25 -15,5 48,64l79 76c23,-19 69,-67 90,-90l-112 -120c-18,-17 -26,-2 -61,-10 -10,-17 -11,-31 -18,-52 -36,-13 -68,0 -82,31 -25,56 29,52 54,66z"/>
   <path class="fil0" d="M1379 1573l16 -62 49 -8c34,-49 69,-94 101,-144 -1,-1 -2,-4 -2,-3 0,1 -2,-2 -3,-3 -1,-1 -2,-2 -3,-3l-41 -30c-22,-15 -34,-26 -55,-38l-90 117c-21,27 -19,15 -12,44 14,61 -55,30 -50,83 4,40 46,57 88,46z"/>
   <path class="fil0" d="M1907 1785l83 -154 -111 -63c-13,15 -94,143 -88,163 7,25 18,37 -8,56 -17,12 -38,16 -23,51 13,29 89,73 95,-9 1,-18 1,-24 14,-32l38 -12z"/>
   <path class="fil0" d="M1775 3112l114 -56 -78 -163 -44 -9 -9 -71c-33,-9 -77,-11 -93,29 -20,51 53,38 36,90 -9,28 -19,11 0,44 22,38 49,106 74,137z"/>
   <path class="fil0" d="M435 588c-24,11 -55,4 -64,33 -13,48 59,112 89,45 18,-40 32,-27 69,-20 8,-14 51,-45 67,-58 21,-17 48,-37 67,-57 -20,-34 -58,-64 -73,-101l-136 98c-22,19 -8,27 -18,59z"/>
   <path class="fil0" d="M2085 2966l117 -47 -59 -157c-17,-29 -4,0 -48,-27 -7,-33 13,-99 -62,-77 -17,5 -36,24 -39,38 -8,34 17,31 30,49 17,25 -4,38 -7,54 -3,17 12,41 20,58 13,29 32,86 49,108z"/>
   <path class="fil0" d="M2463 2092c-21,12 -22,7 -35,30 0,46 56,74 90,46 19,-15 6,-33 9,-56 3,-26 24,-23 41,-35 16,-19 53,-137 59,-168l-118 -45c-19,29 -31,76 -44,110 -39,101 0,41 -3,117z"/>
   <path class="fil0" d="M2247 2901l123 -43 -58 -173c-73,-14 -32,-34 -46,-86 -34,-16 -80,-13 -95,23 -19,47 48,40 28,87 -15,34 -25,-1 12,93 12,32 26,66 36,98z"/>
   <path class="fil0" d="M1926 3037l118 -52c-5,-16 -66,-158 -70,-162 -12,-11 -27,-4 -40,-15 -18,-15 -6,-30 -9,-52 -4,-32 -46,-37 -75,-18 -68,45 15,64 15,99 0,31 -15,18 -13,41 1,14 63,135 73,159z"/>
   <path class="fil0" d="M670 821c22,76 -45,43 -59,79 -17,43 28,78 75,72 16,-24 16,-50 39,-56 39,-10 31,22 66,-22 20,-25 78,-79 102,-94 -19,-43 -62,-62 -83,-100l-107 90c-15,16 -20,19 -33,31z"/>
   <path class="fil0" d="M919 1074c6,22 6,34 1,54 -24,13 -34,4 -53,29 -12,43 29,83 76,69 24,-26 9,-52 38,-60 44,-12 17,21 62,-25l94 -109c-24,-27 -71,-62 -89,-86 -51,28 -87,105 -130,127z"/>
   <path class="fil0" d="M2273 1963c13,23 20,12 17,50 -17,27 -29,11 -38,49 13,41 53,57 95,38 7,-45 -7,-85 51,-85 18,-54 58,-137 65,-171l-122 -47 -68 166z"/>
   <path class="fil0" d="M2068 1872l81 -161 -113 -57 -31 52c-11,20 -20,37 -30,56l-23 54c0,1 1,2 1,3 7,22 23,37 -5,57 -16,11 -38,16 -22,50 8,18 29,35 56,35 37,0 38,-20 39,-51 2,-36 21,-29 47,-38z"/>
   <polygon class="fil0" points="3161,2799 3465,2799 3460,2703 3166,2700 "/>
   <path class="fil0" d="M2925 1996l-93 -24c-5,29 -48,161 -46,172 3,26 42,33 3,71 -22,22 -16,49 12,63 30,16 69,9 76,-18 5,-18 -5,-24 -4,-40 0,-17 7,-16 9,-44 5,-87 16,-110 44,-181z"/>
   <path class="fil0" d="M5314 2626l130 1 2 -184 42 2 0 182 133 0 1 -183 43 1 0 182 132 1 2 -184 42 1 0 182 133 0 2 -183 43 1 0 181 132 2 3 -183 43 0 0 183 133 0 2 -184 42 2 0 182 136 0 0 -182 42 -1 0 183 132 0 2 -184 43 2 0 182 133 0 1 -183 43 1 0 182 132 1c8,-33 4,-142 3,-182 19,2 40,3 50,1 21,-4 22,-7 48,-3l0 25 -41 3c-2,42 1,33 -7,42l-9 115 134 0 3 -182 41 -1 0 182 132 1 3 -184c113,11 56,-58 57,-92 13,-21 17,-17 31,-33l0 -177 -135 -3 -1 183 -42 0 0 -182 -134 0 -1 184 -42 -2 0 -182 -135 0 -1 183 -42 0 0 -182 -135 -1 -1 184 -42 -1 0 -183 -134 0 0 183 -42 -1 -1 -181 -134 -2 -1 184 -42 -1 0 -182 -134 0 -1 184c-57,-7 -43,31 -43,-181l-134 -3 -1 183 -43 0 0 -183 -134 0 0 184 -43 -2 0 -183 -134 1 0 173c-4,12 -13,6 -42,11l0 -138 1 -43 -7 0 -128 -3 -1 184 -43 -1 0 -183 -134 1 -1 183 -42 -1c-1,-31 0,-64 0,-96 0,-42 8,-78 -9,-86 -9,12 -5,92 -7,125 -3,46 -9,72 -14,109 -7,51 -17,59 -16,120 1,38 -4,98 2,133z"/>
   <path class="fil0" d="M6024 2626l130 1 2 -184 42 2 0 182 133 0 1 -183 43 1 0 182 132 1 2 -184 42 1 0 182 133 0 2 -183 43 1 0 181 132 2 3 -183 43 0 0 183 133 0 2 -184 42 2 0 182 136 0 0 -182 42 -1 0 183 132 0 2 -184 43 2 0 182 133 0 1 -183 43 1 0 182 132 1c8,-33 4,-142 3,-182 19,2 40,3 50,1 21,-4 22,-7 48,-3l0 25 -41 3c-2,42 1,33 -7,42l-9 115 134 0 3 -182 41 -1 0 182 132 1 3 -184c113,11 56,-58 57,-92 13,-21 17,-17 31,-33l0 -177 -135 -3 -1 183 -42 0 0 -182 -134 0 -1 184 -42 -2 0 -182 -135 0 -1 183 -42 0 0 -182 -135 -1 -1 184 -42 -1 0 -183 -134 0 0 183 -42 -1 -1 -181 -134 -2 -1 184 -42 -1 0 -182 -134 0 -1 184c-57,-7 -43,31 -43,-181l-134 -3 -1 183 -43 0 0 -183 -134 0 0 184 -43 -2 0 -183 -134 1 0 173c-4,12 -13,6 -42,11l0 -138 1 -43 -7 0 -128 -3 -1 184 -43 -1 0 -183 -134 1 -1 183 -42 -1c-1,-31 0,-64 0,-96 0,-42 8,-78 -9,-86 -9,12 -5,92 -7,125 -3,46 -9,72 -14,109 -7,51 -17,59 -16,120 1,38 -4,98 2,133z"/>
   <path class="fil0" d="M7443 2626l130 1 2 -184 42 2 0 182 133 0 1 -183 43 1 0 182 132 1 2 -184 42 1 0 182 133 0 2 -183 43 1 0 181 132 2 3 -183 43 0 0 183 133 0 2 -184 42 2 0 182 136 0 0 -182 42 -1 0 183 132 0 2 -184 43 2 0 182 133 0 1 -183 43 1 0 182 132 1c8,-33 4,-142 3,-182 19,2 40,3 50,1 21,-4 22,-7 48,-3l0 25 -41 3c-2,42 1,33 -7,42l-9 115 134 0 3 -182 41 -1 0 182 132 1 3 -184c113,11 56,-58 57,-92 13,-21 17,-17 31,-33l0 -177 -135 -3 -1 183 -42 0 0 -182 -134 0 -1 184 -42 -2 0 -182 -135 0 -1 183 -42 0 0 -182 -135 -1 -1 184 -42 -1 0 -183 -134 0 0 183 -42 -1 -1 -181 -134 -2 -1 184 -42 -1 0 -182 -134 0 -1 184c-57,-7 -43,31 -43,-181l-134 -3 -1 183 -43 0 0 -183 -134 0 0 184 -43 -2 0 -183 -134 1 0 173c-4,12 -13,6 -42,11l0 -138 1 -43 -7 0 -128 -3 -1 184 -43 -1 0 -183 -134 1 -1 183 -42 -1c-1,-31 0,-64 0,-96 0,-42 8,-78 -9,-86 -9,12 -5,92 -7,125 -3,46 -9,72 -14,109 -7,51 -17,59 -16,120 1,38 -4,98 2,133z"/>
   <path class="fil0" d="M8153 2626l130 1 2 -184 42 2 0 182 133 0 1 -183 43 1 0 182 132 1 2 -184 42 1 0 182 133 0 2 -183 43 1 0 181 132 2 3 -183 43 0 0 183 133 0 2 -184 42 2 0 182 136 0 0 -182 42 -1 0 183 132 0 2 -184 43 2 0 182 133 0 1 -183 43 1 0 182 132 1c8,-33 4,-142 3,-182 19,2 40,3 50,1 21,-4 22,-7 48,-3l0 25 -41 3c-2,42 1,33 -7,42l-9 115 134 0 3 -182 41 -1 0 182 132 1 3 -184c113,11 56,-58 57,-92 13,-21 17,-17 31,-33l0 -177 -135 -3 -1 183 -42 0 0 -182 -134 0 -1 184 -42 -2 0 -182 -135 0 -1 183 -42 0 0 -182 -135 -1 -1 184 -42 -1 0 -183 -134 0 0 183 -42 -1 -1 -181 -134 -2 -1 184 -42 -1 0 -182 -134 0 -1 184c-57,-7 -43,31 -43,-181l-134 -3 -1 183 -43 0 0 -183 -134 0 0 184 -43 -2 0 -183 -134 1 0 173c-4,12 -13,6 -42,11l0 -138 1 -43 -7 0 -128 -3 -1 184 -43 -1 0 -183 -134 1 -1 183 -42 -1c-1,-31 0,-64 0,-96 0,-42 8,-78 -9,-86 -9,12 -5,92 -7,125 -3,46 -9,72 -14,109 -7,51 -17,59 -16,120 1,38 -4,98 2,133z"/>
   <path class="fil0" d="M9750 2626l130 1 2 -184 42 2 0 182 133 0 1 -183 43 1 0 182 132 1 2 -184 42 1 0 182 133 0 2 -183 43 1 0 181 132 2 3 -183 43 0 0 183 133 0 2 -184 42 2 0 182 136 0 0 -182 42 -1 0 183 132 0 2 -184 43 2 0 182 133 0 1 -183 43 1 0 182 132 1c8,-33 4,-142 3,-182 19,2 40,3 50,1 21,-4 22,-7 48,-3l0 25 -41 3c-2,42 1,33 -7,42l-9 115 134 0 3 -182 41 -1 0 182 132 1 3 -184c113,11 56,-58 57,-92 13,-21 17,-17 31,-33l0 -177 -135 -3 -1 183 -42 0 0 -182 -134 0 -1 184 -42 -2 0 -182 -135 0 -1 183 -42 0 0 -182 -135 -1 -1 184 -42 -1 0 -183 -134 0 0 183 -42 -1 -1 -181 -134 -2 -1 184 -42 -1 0 -182 -134 0 -1 184c-57,-7 -43,31 -43,-181l-134 -3 -1 183 -43 0 0 -183 -134 0 0 184 -43 -2 0 -183 -134 1 0 173c-4,12 -13,6 -42,11l0 -138 1 -43 -7 0 -128 -3 -1 184 -43 -1 0 -183 -134 1 -1 183 -42 -1c-1,-31 0,-64 0,-96 0,-42 8,-78 -9,-86 -9,12 -5,92 -7,125 -3,46 -9,72 -14,109 -7,51 -17,59 -16,120 1,38 -4,98 2,133z"/>
   <path class="fil0" d="M10460 2626l130 1 2 -184 42 2 0 182 133 0 1 -183 43 1 0 182 132 1 2 -184 42 1 0 182 133 0 2 -183 43 1 0 181 132 2 3 -183 43 0 0 183 133 0 2 -184 42 2 0 182 136 0 0 -182 42 -1 0 183 132 0 2 -184 43 2 0 182 133 0 1 -183 43 1 0 182 132 1c8,-33 4,-142 3,-182 19,2 40,3 50,1 21,-4 22,-7 48,-3l0 25 -41 3c-2,42 1,33 -7,42l-9 115 134 0 3 -182 41 -1 0 182 132 1 3 -184c113,11 56,-58 57,-92 13,-21 17,-17 31,-33l0 -177 -135 -3 -1 183 -42 0 0 -182 -134 0 -1 184 -42 -2 0 -182 -135 0 -1 183 -42 0 0 -182 -135 -1 -1 184 -42 -1 0 -183 -134 0 0 183 -42 -1 -1 -181 -134 -2 -1 184 -42 -1 0 -182 -134 0 -1 184c-57,-7 -43,31 -43,-181l-134 -3 -1 183 -43 0 0 -183 -134 0 0 184 -43 -2 0 -183 -134 1 0 173c-4,12 -13,6 -42,11l0 -138 1 -43 -7 0 -128 -3 -1 184 -43 -1 0 -183 -134 1 -1 183 -42 -1c-1,-31 0,-64 0,-96 0,-42 8,-78 -9,-86 -9,12 -5,92 -7,125 -3,46 -9,72 -14,109 -7,51 -17,59 -16,120 1,38 -4,98 2,133z"/>
   <path class="fil0" d="M11880 2626l130 1 2 -184 42 2 0 182 133 0 1 -183 43 1 0 182 132 1 2 -184 42 1 0 182 133 0 2 -183 43 1 0 181 132 2 3 -183 43 0 0 183 133 0 2 -184 42 2 0 182 136 0 0 -182 42 -1 0 183 132 0 2 -184 43 2 0 182 133 0 1 -183 43 1 0 182 132 1c8,-33 4,-142 3,-182 19,2 40,3 50,1 21,-4 22,-7 48,-3l0 25 -41 3c-2,42 1,33 -7,42l-9 115 134 0 3 -182 41 -1 0 182 132 1 3 -184c113,11 56,-58 57,-92 13,-21 17,-17 31,-33l0 -177 -135 -3 -1 183 -42 0 0 -182 -134 0 -1 184 -42 -2 0 -182 -135 0 -1 183 -42 0 0 -182 -135 -1 -1 184 -42 -1 0 -183 -134 0 0 183 -42 -1 -1 -181 -134 -2 -1 184 -42 -1 0 -182 -134 0 -1 184c-57,-7 -43,31 -43,-181l-134 -3 -1 183 -43 0 0 -183 -134 0 0 184 -43 -2 0 -183 -134 1 0 173c-4,12 -13,6 -42,11l0 -138 1 -43 -7 0 -128 -3 -1 184 -43 -1 0 -183 -134 1 -1 183 -42 -1c-1,-31 0,-64 0,-96 0,-42 8,-78 -9,-86 -9,12 -5,92 -7,125 -3,46 -9,72 -14,109 -7,51 -17,59 -16,120 1,38 -4,98 2,133z"/>
   <path class="fil0" d="M12590 2626l130 1 2 -184 42 2 0 182 133 0 1 -183 43 1 0 182 132 1 2 -184 42 1 0 182 133 0 2 -183 43 1 0 181 132 2 3 -183 43 0 0 183 133 0 2 -184 42 2 0 182 136 0 0 -182 42 -1 0 183 132 0 2 -184 43 2 0 182 133 0 1 -183 43 1 0 182 132 1c8,-33 4,-142 3,-182l49 0 -8 183 134 0 3 -182 41 -1 0 182 132 1 3 -184c113,11 56,-58 57,-92 13,-21 17,-17 31,-33l0 -177 -135 -3 -1 183 -42 0 0 -182 -134 0 -1 184 -42 -2 0 -182 -135 0 -1 183 -42 0 0 -182 -135 -1 -1 184 -42 -1 0 -183 -134 0 0 183 -42 -1 -1 -181 -134 -2 -1 184 -42 -1 0 -182 -134 0 -1 184c-57,-7 -43,31 -43,-181l-134 -3 -1 183 -43 0 0 -183 -134 0 0 184 -43 -2 0 -183 -134 1 0 173c-4,12 -13,6 -42,11l0 -138 1 -43 -7 0 -128 -3 -1 184 -43 -1 0 -183 -134 1 -1 183 -42 -1c-1,-31 0,-64 0,-96 0,-42 8,-78 -9,-86 -9,12 -5,92 -7,125 -3,46 -9,72 -14,109 -7,51 -17,59 -16,120 1,38 -4,98 2,133z"/>
   <g>
    <path class="fil2" d="M16064 2657c0,54 4,95 32,142 9,15 17,29 29,42l17 18c18,17 38,32 62,44 58,29 137,38 202,38 33,0 68,-7 95,-13 58,-12 137,-48 187,-85 11,-8 18,-20 36,-20 5,56 -9,128 52,128 25,0 46,-8 65,-20 17,-11 39,-32 53,-48 3,-4 4,-5 7,-8 23,-25 30,-4 39,20 5,13 10,23 17,35 26,42 94,63 94,10 0,-11 -20,-47 -28,-70 -8,-24 -15,-52 -20,-79 -5,-29 -8,-57 -12,-86 -2,-14 -3,-29 -11,-39 -16,-20 -55,-20 -69,-5 -14,16 -56,152 -92,162 0,-9 4,-23 5,-32 7,-35 11,-59 24,-93 13,-34 75,-122 30,-122 -17,0 -52,17 -64,25 -22,13 -24,19 -38,29l-108 98c-5,4 -6,6 -12,10 -45,35 -57,47 -112,70 -84,36 -168,32 -254,8 -128,-36 -155,-145 -74,-257 5,-7 10,-13 15,-20 24,-32 59,-62 92,-85 74,-52 147,-56 196,-86 54,-33 34,-92 -47,-92 -27,0 -85,22 -111,34 -46,22 -100,51 -137,84 -66,59 -159,163 -159,260z"/>
    <path class="fil2" d="M15964 1712c0,40 9,42 5,68 -10,84 -13,127 -13,210 0,50 2,80 6,130 3,41 12,54 -19,63 -13,4 -23,6 -35,10 -35,12 -61,25 -94,38 -31,13 -74,36 -107,36 -22,0 -36,-56 -43,-78 -5,-14 -10,-31 -14,-45 -23,-82 -20,-76 85,-89 12,-2 27,-2 40,-4 27,-4 49,-8 71,-16 23,-9 49,-19 49,-42 0,-13 -8,-26 -20,-26 -103,0 -98,-2 -192,19 -18,4 -45,16 -53,1 -8,-15 -5,-75 24,-89 14,-7 25,-5 44,-6 19,-1 84,-12 106,-19 26,-8 71,-31 71,-57 0,-36 -11,-33 -50,-33 -23,0 -106,33 -134,33 -38,0 -47,-28 -69,-28 -11,0 -14,10 -33,23 -11,7 -25,13 -38,18 -13,6 -67,30 -67,46l0 26c0,10 2,11 2,20 60,0 57,36 49,77 -4,22 -5,36 -20,54 -9,10 -20,30 -7,41 12,11 35,3 50,54 5,16 10,30 14,46 2,7 4,15 7,23 3,8 4,15 7,22 6,15 10,29 16,44 6,16 10,27 18,42 11,22 35,53 67,53 39,0 63,-15 92,-36 5,-4 9,-6 14,-10 10,-7 19,-12 29,-19 30,-22 104,-61 138,-61 14,0 22,42 24,56 4,24 13,41 41,41 55,0 38,-49 33,-102 -1,-11 -2,-24 -4,-35 -1,-6 -1,-10 -2,-16 -5,-36 -14,-130 -14,-162 0,-47 0,-59 4,-106 3,-39 2,-105 2,-147l-4 -93c-6,-23 -18,-22 -39,-22 -24,0 -37,23 -37,46z"/>
    <path class="fil2" d="M17200 2861c-41,0 -11,-61 -7,-74 13,-48 48,-99 107,-99 49,0 57,7 51,46 -4,29 -18,55 -35,69 -17,14 -26,22 -50,32 -9,4 -62,25 -67,25zm-143 -308l5 286c-18,156 143,144 244,88 15,-9 47,-33 60,-46 15,-14 36,-39 48,-56 3,-4 4,-6 7,-10 19,-26 40,-80 40,-119 0,-45 5,-91 -38,-106 -11,-4 -92,-11 -103,-11 -17,1 -35,3 -50,6 -16,3 -29,7 -42,13 -53,27 -49,36 -66,48 -2,-9 -6,-15 -8,-27 -7,-39 -2,-135 1,-177 4,-52 15,-98 25,-147 6,-30 21,-72 -39,-72 -30,0 -46,26 -55,49 -4,12 -12,73 -14,90 -8,60 -17,124 -17,191z"/>
    <path class="fil2" d="M17581 2840c-4,0 -5,-3 -9,-6 0,-17 10,-46 15,-59 4,-8 9,-16 14,-23 3,-4 5,-8 7,-11l14 -16c22,-22 52,-43 77,-60 0,14 -13,43 -18,54 -12,28 -77,120 -101,120zm-113 17c0,28 3,47 22,65 35,35 90,21 127,2 29,-15 49,-45 69,-70 7,-9 13,-18 20,-27 3,-5 6,-8 10,-13l31 -40c20,38 50,120 73,155 4,6 6,7 10,12 7,9 36,33 50,33 15,0 22,-1 39,-11 35,-23 9,-56 -8,-80 -58,-77 -75,-187 -90,-277 -3,-21 -8,-46 -24,-58 -5,-4 -14,-7 -20,-7 -9,0 -21,5 -29,8 -17,7 -33,16 -49,23l-49 25c-30,16 -43,29 -66,48l-20 19c0,0 -1,1 -1,1l-31 34c-35,44 -64,94 -64,157z"/>
    <path class="fil2" d="M18052 2627c-25,0 -14,-11 -52,-11 -23,0 -38,25 -42,43 -2,12 -3,27 -4,39 -1,7 0,14 0,20 0,10 -2,11 -2,20 -1,31 -1,53 -4,81l-11 75c0,40 61,88 91,11 3,-8 6,-14 9,-21l52 -119c16,-32 27,-65 50,-93l11 -12c3,-3 0,-2 4,-3l8 41c13,64 26,195 56,245 11,19 25,21 41,21 19,0 49,-5 46,-31l-15 -64c-5,-20 -10,-42 -14,-64 -11,-59 -25,-246 -72,-278 -40,-28 -77,5 -100,36 -16,22 -35,64 -51,64z"/>
    <path class="fil2" d="M18403 2787c0,-21 4,-40 14,-53 52,-68 72,17 72,31 0,32 0,51 -19,80 -7,10 -27,33 -43,33 -27,0 -24,-60 -23,-80 0,-5 -1,-4 -1,-11zm-95 -20c0,68 -7,114 33,168 37,50 101,52 154,23 9,-5 19,-12 26,-18 64,-55 89,-191 36,-267 -50,-72 -138,-55 -199,-6 -24,19 -50,57 -50,101z"/>
    <path class="fil2" d="M17170 2012c44,-10 49,-10 93,0l0 4c-16,1 -28,12 -72,5 -9,-2 -17,-3 -21,-9zm-28 11c0,47 11,54 74,54 20,0 52,0 65,-13 6,-5 6,-10 9,-17 -7,-1 -5,-2 -15,-2 -11,0 -20,17 -56,12 -29,-4 -51,8 -51,-17l87 0c42,0 57,-54 -15,-54 -22,0 -65,-2 -83,6 -11,5 -16,16 -16,31z"/>
    <path class="fil2" d="M16667 2024c-27,0 -36,-7 -46,-7l0 -4c30,-7 38,-10 70,-5 9,1 15,3 23,5 -6,9 -31,11 -46,11zm-74 4c0,22 -2,37 23,45 12,4 122,19 123,-25 -33,-3 -8,-3 -31,6 -21,8 -35,3 -47,3 -5,0 -8,0 -13,-1 -6,-1 -17,2 -25,-2 -6,-3 -5,-6 -5,-14l87 0c41,0 57,-54 -15,-54 -23,0 -62,-1 -82,6 -13,5 -17,17 -17,35z"/>
    <path class="fil2" d="M17326 2014c0,11 9,18 18,21 12,5 18,5 34,5 20,0 36,-2 55,2 7,1 8,3 17,3 -2,8 0,7 -20,10 -62,9 -85,-12 -105,-12 8,33 25,33 71,33 13,0 38,-1 49,-3 31,-7 40,-32 12,-47 -8,-4 -24,-6 -35,-6 -27,-1 -33,3 -59,-2 -10,-2 -11,1 -12,-9 32,-7 54,-7 86,-1l36 10c-1,-40 -65,-33 -97,-33 -23,0 -52,6 -52,28z"/>
    <path class="fil2" d="M16352 2018c0,46 -4,59 74,59 26,0 67,1 74,-30 -17,-3 -16,-4 -27,3 -5,3 -6,4 -13,5 -14,3 -51,2 -65,0 -23,-3 -19,-21 -19,-32 0,-22 25,-16 39,-17 8,0 9,-2 18,-2 35,-1 38,10 47,11 4,1 15,0 20,0 -5,-10 -7,-16 -17,-22 -19,-12 -112,-12 -126,6 -3,4 -6,12 -6,18z"/>
    <path class="fil2" d="M16961 1992l0 84c30,0 25,7 24,-46 0,-26 5,-22 30,-22 23,0 43,-7 68,6 9,5 8,3 25,3 -5,-22 -23,-30 -50,-30l-91 0c-4,0 -6,1 -6,6z"/>
    <path class="fil2" d="M16777 1988l0 87 24 0c0,-24 -4,-53 7,-64 6,-6 6,-3 16,-4 79,-9 69,8 81,8l19 0c0,-17 -14,-25 -28,-27l-65 -2c-20,0 -34,2 -54,2z"/>
    <path class="fil2" d="M16535 1973c0,13 -2,6 7,13l-7 2 0 83c13,9 24,5 24,-2l0 -67c0,-10 -6,-10 -15,-19 24,0 17,-19 2,-19 -6,0 -11,2 -11,7z"/>
   </g>
   <path class="fil0" d="M19140 2626l130 1 2 -184 42 2 0 182 133 0 1 -183 43 1 0 182 132 1 2 -184 42 1 0 182 133 0 2 -183 43 1 0 181 132 2 3 -183 43 0 0 183 133 0 2 -184 42 2 0 182 136 0 0 -182 42 -1 0 183 132 0 2 -184 43 2 0 182 133 0 1 -183 43 1 0 182 132 1c8,-33 4,-142 3,-182 19,2 40,3 50,1 21,-4 22,-7 48,-3l0 25 -41 3c-2,42 1,33 -7,42l-9 115 134 0 3 -182 41 -1 0 182 132 1 3 -184c113,11 56,-58 57,-92 13,-21 17,-17 31,-33l0 -177 -135 -3 -1 183 -42 0 0 -182 -134 0 -1 184 -42 -2 0 -182 -135 0 -1 183 -42 0 0 -182 -135 -1 -1 184 -42 -1 0 -183 -134 0 0 183 -42 -1 -1 -181 -134 -2 -1 184 -42 -1 0 -182 -134 0 -1 184c-57,-7 -43,31 -43,-181l-134 -3 -1 183 -43 0 0 -183 -134 0 0 184 -43 -2 0 -183 -134 1 0 173c-4,12 -13,6 -42,11l0 -138 1 -43 -7 0 -128 -3 -1 184 -43 -1 0 -183 -134 1 -1 183 -42 -1c-1,-31 0,-64 0,-96 0,-42 8,-78 -9,-86 -9,12 -5,92 -7,125 -3,46 -9,72 -14,109 -7,51 -17,59 -16,120 1,38 -4,98 2,133z"/>
   <path class="fil0" d="M19850 2626l130 1 2 -184 42 2 0 182 133 0 1 -183 43 1 0 182 132 1 2 -184 42 1 0 182 133 0 2 -183 43 1 0 181 132 2 3 -183 43 0 0 183 133 0 2 -184 42 2 0 182 136 0 0 -182 42 -1 0 183 132 0 2 -184 43 2 0 182 133 0 1 -183 43 1 0 182 132 1c8,-33 4,-142 3,-182 19,2 40,3 50,1 21,-4 22,-7 48,-3l0 25 -41 3c-2,42 1,33 -7,42l-9 115 134 0 3 -182 41 -1 0 182 132 1 3 -184c113,11 56,-58 57,-92 13,-21 17,-17 31,-33l0 -177 -135 -3 -1 183 -42 0 0 -182 -134 0 -1 184 -42 -2 0 -182 -135 0 -1 183 -42 0 0 -182 -135 -1 -1 184 -42 -1 0 -183 -134 0 0 183 -42 -1 -1 -181 -134 -2 -1 184 -42 -1 0 -182 -134 0 -1 184c-57,-7 -43,31 -43,-181l-134 -3 -1 183 -43 0 0 -183 -134 0 0 184 -43 -2 0 -183 -134 1 0 173c-4,12 -13,6 -42,11l0 -138 1 -43 -7 0 -128 -3 -1 184 -43 -1 0 -183 -134 1 -1 183 -42 -1c-1,-31 0,-64 0,-96 0,-42 8,-78 -9,-86 -9,12 -5,92 -7,125 -3,46 -9,72 -14,109 -7,51 -17,59 -16,120 1,38 -4,98 2,133z"/>
   <path class="fil0" d="M21270 2626l130 1 2 -184 42 2 0 182 133 0 1 -183 43 1 0 182 132 1 2 -184 42 1 0 182 133 0 2 -183 43 1 0 181 132 2 3 -183 43 0 0 183 133 0 2 -184 42 2 0 182 136 0 0 -182 42 -1 0 183 132 0 2 -184 43 2 0 182 133 0 1 -183 43 1 0 182 132 1c8,-33 4,-142 3,-182 19,2 40,3 50,1 21,-4 22,-7 48,-3l0 25 -41 3c-2,42 1,33 -7,42l-9 115 134 0 3 -182 41 -1 0 182 132 1 3 -184c113,11 56,-58 57,-92 13,-21 17,-17 31,-33l0 -177 -135 -3 -1 183 -42 0 0 -182 -134 0 -1 184 -42 -2 0 -182 -135 0 -1 183 -42 0 0 -182 -135 -1 -1 184 -42 -1 0 -183 -134 0 0 183 -42 -1 -1 -181 -134 -2 -1 184 -42 -1 0 -182 -134 0 -1 184c-57,-7 -43,31 -43,-181l-134 -3 -1 183 -43 0 0 -183 -134 0 0 184 -43 -2 0 -183 -134 1 0 173c-4,12 -13,6 -42,11l0 -138 1 -43 -7 0 -128 -3 -1 184 -43 -1 0 -183 -134 1 -1 183 -42 -1c-1,-31 0,-64 0,-96 0,-42 8,-78 -9,-86 -9,12 -5,92 -7,125 -3,46 -9,72 -14,109 -7,51 -17,59 -16,120 1,38 -4,98 2,133z"/>
   <path class="fil0" d="M21980 2626l130 1 2 -184 42 2 0 182 133 0 1 -183 43 1 0 182 132 1 2 -184 42 1 0 182 133 0 2 -183 43 1 0 181 132 2 3 -183 43 0 0 183 133 0 2 -184 42 2 0 182 136 0 0 -182 42 -1 0 183 132 0 2 -184 43 2 0 182 133 0 1 -183 43 1 0 182 132 1c8,-33 4,-142 3,-182l49 0 -8 183 134 0 3 -182 41 -1 0 182 132 1 3 -184c113,11 56,-58 57,-92 13,-21 17,-17 31,-33l0 -177 -135 -3 -1 183 -42 0 0 -182 -134 0 -1 184 -42 -2 0 -182 -135 0 -1 183 -42 0 0 -182 -135 -1 -1 184 -42 -1 0 -183 -134 0 0 183 -42 -1 -1 -181 -134 -2 -1 184 -42 -1 0 -182 -134 0 -1 184c-57,-7 -43,31 -43,-181l-134 -3 -1 183 -43 0 0 -183 -134 0 0 184 -43 -2 0 -183 -134 1 0 173c-4,12 -13,6 -42,11l0 -138 1 -43 -7 0 -128 -3 -1 184 -43 -1 0 -183 -134 1 -1 183 -42 -1c-1,-31 0,-64 0,-96 0,-42 8,-78 -9,-86 -9,12 -5,92 -7,125 -3,46 -9,72 -14,109 -7,51 -17,59 -16,120 1,38 -4,98 2,133z"/>
  </g>
 </g>
</svg>
